<svg width="312" height="312" viewBox="0 0 312 312" fill="none" xmlns="http://www.w3.org/2000/svg">
<circle cx="156" cy="156" r="156" fill="#F3CCCC"/>
<path d="M251.786 194.223C255.522 248.134 209.723 235.78 156.914 235.78C104.105 235.78 56.8129 246.45 61.2949 197.593C61.2949 165.021 156.914 169.514 156.914 169.514C156.914 169.514 249.954 167.777 251.786 194.223Z" fill="#7D5138"/>
<path d="M245.122 185.208C245.122 192.222 211.276 194.92 158.467 194.92C105.658 194.92 65.8357 195.21 65.8357 188.197C65.8357 181.183 98.1875 162.051 150.997 162.051C203.806 162.051 245.122 178.195 245.122 185.208Z" fill="#4A240E"/>
<path d="M80.3507 193.845C62.1017 208.361 64.3237 196.941 66.4395 188.646C68.5554 180.35 232.473 199.101 239.911 188.041C247.35 176.981 254.046 203.523 245.517 202.831C236.988 202.14 233.32 194.179 224.987 195.919C213.31 198.357 224.987 206.288 211.135 220.804C202.651 229.695 206.694 199.097 193.37 201.943C185.352 203.656 190.798 209.692 174.637 209.744C159.099 209.794 165.253 202.603 157.104 201.339C147.691 199.878 143.462 209.053 134.337 206.288C125.213 203.523 119.629 192.272 110.563 211.01C101.224 230.31 86.9406 208.886 84.1526 200.13L80.3507 193.845Z" fill="#4A240E" stroke="#4A240E" stroke-width="1.49405"/>
<path d="M236.112 149.117C239.138 194.364 202.035 183.995 159.253 183.995C116.471 183.995 78.1585 192.95 81.7894 151.945C81.7894 124.608 159.253 128.379 159.253 128.379C159.253 128.379 234.627 126.921 236.112 149.117Z" fill="#7D5138"/>
<path d="M231.45 141.09C231.45 146.092 204.064 148.016 161.336 148.016C118.607 148.016 86.3862 148.223 86.3862 143.221C86.3862 138.219 112.563 124.576 155.291 124.576C198.02 124.576 231.45 136.089 231.45 141.09Z" fill="#4A240E"/>
<path d="M99.0793 147.626C86.9907 154.019 86.3862 149.224 86.3862 143.897C86.3862 138.57 220.228 150.823 226.141 143.897C232.054 136.972 235.076 147.094 230.845 149.225C226.614 151.355 217.548 151.888 214.052 149.224C213.12 148.514 212.498 147.936 212.096 147.492C212.383 149.046 211.807 152.266 206.668 157.215C199.72 163.907 196.235 147.031 185.644 149.224C179.271 150.544 186.875 159.839 174.029 159.879C161.677 159.917 166.736 152.33 160.258 151.355C152.776 150.23 149.247 159.346 141.994 157.215C134.741 155.084 135.345 154.552 121.443 162.542C114.676 166.432 109.355 160.412 104.519 154.552L99.0793 147.626Z" fill="#4A240E"/>
<path d="M86.3862 143.897C86.3862 149.224 86.9907 154.019 99.0793 147.626L104.519 154.552C109.355 160.412 114.676 166.432 121.443 162.542C135.345 154.552 134.741 155.084 141.994 157.215C149.247 159.346 152.776 150.23 160.258 151.355C166.736 152.33 161.677 159.917 174.029 159.879C186.875 159.839 179.271 150.544 185.644 149.224C196.235 147.031 199.72 163.907 206.668 157.215C218.152 146.156 206.848 143.735 214.052 149.224C217.548 151.888 226.614 151.355 230.845 149.225C235.076 147.094 232.054 136.972 226.141 143.897C220.228 150.823 86.3862 138.57 86.3862 143.897Z" stroke="#4A240E" stroke-width="1.20886"/>
<path d="M216.812 106.868C219.105 150.896 190.988 140.806 158.568 140.806C126.147 140.806 97.113 149.52 99.8646 109.62C99.8646 83.0204 158.568 86.6893 158.568 86.6893C158.568 86.6893 215.687 85.2711 216.812 106.868Z" fill="#7D5138"/>
<path d="M212.962 98.9007C212.962 103.207 192.183 104.863 159.762 104.863C127.342 104.863 102.894 105.041 102.894 100.735C102.894 96.4293 122.756 84.6836 155.176 84.6836C187.597 84.6836 212.962 94.5948 212.962 98.9007Z" fill="#4A240E"/>
<path d="M112.984 103.487C101.977 113.118 102.076 105.78 103.353 100.276C104.629 94.773 204.906 107.614 209.393 100.277C213.879 92.9386 217.747 109.907 212.603 109.449C207.458 108.99 205.246 103.708 200.22 104.863C193.178 106.48 200.22 111.742 191.866 121.373C186.749 127.272 186.702 102.975 178.665 104.863C173.829 105.999 179.599 114.001 169.852 114.035C160.48 114.068 164.318 107.536 159.403 106.697C153.726 105.728 151.049 113.576 145.545 111.742C140.042 109.907 133.996 104.679 131.428 118.621C128.86 132.563 116.958 116.175 115.277 110.366L112.984 103.487Z" fill="#4A240E" stroke="#4A240E" stroke-width="0.917233"/>
<path d="M111.903 135.072C112.208 136.84 111.74 138.318 110.772 139.432C109.8 140.551 108.308 141.318 106.544 141.622C104.781 141.925 103.119 141.701 101.828 140.972C100.543 140.246 99.6081 139.009 99.3037 137.241C98.6953 133.708 100.304 129.499 103.853 125.991C108.371 128.11 111.295 131.538 111.903 135.072Z" fill="#C27979" stroke="#C27979" stroke-width="0.482448"/>
<path d="M151.028 139.015C151.342 140.836 150.86 142.359 149.863 143.506C148.861 144.66 147.324 145.45 145.508 145.762C143.692 146.075 141.979 145.845 140.649 145.093C139.325 144.345 138.362 143.071 138.049 141.25C137.422 137.61 139.079 133.274 142.735 129.66C147.39 131.843 150.402 135.375 151.028 139.015Z" fill="#C27979" stroke="#C27979" stroke-width="0.497"/>
<path d="M179.57 140.731C179.726 142.547 179.029 144.018 177.781 145.089C176.525 146.166 174.7 146.844 172.608 147.024C170.516 147.203 168.602 146.845 167.181 145.997C165.769 145.154 164.833 143.823 164.677 142.007C164.364 138.357 166.689 134.158 171.219 130.816C176.252 133.339 179.257 137.081 179.57 140.731Z" fill="#C27979" stroke="#C27979" stroke-width="0.564055"/>
<path d="M192.423 140.933C192.378 143.029 191.512 144.621 190.152 145.684C188.786 146.751 186.902 147.298 184.811 147.253C182.72 147.207 180.861 146.579 179.543 145.454C178.231 144.334 177.434 142.706 177.479 140.609C177.57 136.418 180.356 131.947 185.213 128.713C189.924 132.154 192.514 136.742 192.423 140.933Z" fill="#C27979" stroke="#C27979" stroke-width="0.564055"/>
<path d="M204.645 140.457C204.606 142.268 203.869 143.64 202.718 144.555C201.56 145.475 199.962 145.948 198.184 145.91C196.407 145.871 194.831 145.329 193.714 144.36C192.603 143.396 191.927 141.994 191.966 140.183C192.044 136.565 194.407 132.701 198.531 129.9C202.53 132.877 204.723 136.84 204.645 140.457Z" fill="#C27979" stroke="#C27979" stroke-width="0.564055"/>
<path d="M215.837 138.786C215.689 140.591 214.872 141.916 213.667 142.76C212.456 143.609 210.832 143.985 209.061 143.84C207.289 143.694 205.748 143.058 204.692 142.024C203.641 140.995 203.05 139.554 203.198 137.749C203.494 134.142 206.085 130.428 210.37 127.879C214.183 131.092 216.133 135.179 215.837 138.786Z" fill="#C27979" stroke="#C27979" stroke-width="0.564055"/>
<path d="M165.729 140.706C165.715 142.803 164.873 144.408 163.53 145.491C162.18 146.579 160.304 147.154 158.213 147.14C156.121 147.126 154.254 146.526 152.918 145.421C151.589 144.32 150.768 142.704 150.782 140.607C150.81 136.415 153.528 131.903 158.335 128.597C163.098 131.966 165.757 136.514 165.729 140.706Z" fill="#C27979" stroke="#C27979" stroke-width="0.564055"/>
<path d="M138.556 138.056C138.912 140.123 138.366 141.851 137.234 143.153C136.097 144.462 134.352 145.359 132.291 145.714C130.23 146.069 128.286 145.807 126.776 144.954C125.274 144.105 124.181 142.659 123.825 140.592C123.114 136.461 124.995 131.54 129.144 127.439C134.427 129.916 137.845 133.925 138.556 138.056Z" fill="#C27979" stroke="#C27979" stroke-width="0.564055"/>
<path d="M124.912 139.302C124.93 141.399 124.112 143.017 122.785 144.119C121.452 145.227 119.585 145.831 117.494 145.848C115.402 145.866 113.526 145.294 112.174 144.209C110.828 143.128 109.983 141.525 109.966 139.428C109.93 135.236 112.581 130.683 117.337 127.305C122.151 130.603 124.877 135.11 124.912 139.302Z" fill="#C27979" stroke="#C27979" stroke-width="0.564055"/>
<path d="M221.663 133.625C221.678 134.893 221.196 135.87 220.412 136.538C219.624 137.209 218.518 137.578 217.274 137.594C216.029 137.609 214.914 137.268 214.11 136.616C213.309 135.968 212.803 135.003 212.787 133.736C212.756 131.204 214.316 128.444 217.134 126.386C220.002 128.374 221.631 131.093 221.663 133.625Z" fill="#C27979" stroke="#C27979" stroke-width="0.394784"/>
<path d="M104.015 133.323C104.03 134.591 103.548 135.568 102.764 136.236C101.976 136.907 100.87 137.276 99.6256 137.291C98.3814 137.307 97.266 136.965 96.4616 136.314C95.6614 135.666 95.155 134.701 95.1393 133.433C95.1078 130.901 96.6682 128.142 99.4862 126.084C102.355 128.071 103.983 130.791 104.015 133.323Z" fill="#C27979" stroke="#C27979" stroke-width="0.394784"/>
<path d="M96.5263 182.626C96.544 184.674 95.7455 186.254 94.4499 187.331C93.1482 188.413 91.3259 189.003 89.2834 189.02C87.2409 189.038 85.4086 188.48 84.0884 187.421C82.7743 186.366 81.9486 184.801 81.9308 182.753C81.8954 178.659 84.4823 174.213 89.1266 170.913C93.8273 174.132 96.4908 178.533 96.5263 182.626Z" fill="#C27979" stroke="#C27979" stroke-width="0.550793"/>
<path d="M142.063 186.997C142.421 189.076 141.871 190.815 140.733 192.125C139.589 193.441 137.834 194.343 135.76 194.7C133.687 195.057 131.731 194.794 130.213 193.936C128.702 193.082 127.603 191.628 127.245 189.549C126.529 185.393 128.421 180.443 132.595 176.317C137.909 178.809 141.347 182.841 142.063 186.997Z" fill="#C27979" stroke="#C27979" stroke-width="0.567408"/>
<path d="M174.663 189.134C174.835 191.146 174.04 192.781 172.612 193.975C171.176 195.176 169.089 195.936 166.699 196.14C164.31 196.345 162.125 195.952 160.504 195.012C158.894 194.078 157.833 192.603 157.66 190.591C157.313 186.54 159.974 181.867 165.157 178.137C170.899 180.931 174.316 185.083 174.663 189.134Z" fill="#C27979" stroke="#C27979" stroke-width="0.643961"/>
<path d="M189.308 189.803C189.261 191.988 188.284 193.65 186.736 194.762C185.178 195.881 183.024 196.454 180.631 196.402C178.238 196.35 176.111 195.685 174.603 194.499C173.104 193.321 172.2 191.618 172.247 189.434C172.342 185.051 175.504 180.363 181.052 176.973C186.448 180.6 189.403 185.421 189.308 189.803Z" fill="#C27979" stroke="#C27979" stroke-width="0.643961"/>
<path d="M203.275 188.644C203.23 190.711 202.39 192.278 201.075 193.322C199.753 194.373 197.929 194.913 195.899 194.869C193.87 194.825 192.071 194.206 190.796 193.1C189.527 191.999 188.755 190.398 188.8 188.33C188.89 184.201 191.587 179.789 196.295 176.591C200.861 179.99 203.365 184.514 203.275 188.644Z" fill="#C27979" stroke="#C27979" stroke-width="0.643961"/>
<path d="M216.053 186.735C215.884 188.796 214.951 190.309 213.575 191.273C212.193 192.242 210.339 192.671 208.316 192.505C206.293 192.339 204.534 191.613 203.328 190.432C202.128 189.257 201.454 187.612 201.623 185.551C201.961 181.434 204.919 177.193 209.811 174.284C214.164 177.952 216.391 182.618 216.053 186.735Z" fill="#C27979" stroke="#C27979" stroke-width="0.643961"/>
<path d="M230.429 182.206C230.758 184.248 230.214 185.94 229.109 187.205C227.998 188.476 226.301 189.336 224.297 189.659C222.293 189.982 220.411 189.698 218.958 188.839C217.512 187.985 216.464 186.55 216.135 184.508C215.478 180.43 217.336 175.604 221.39 171.609C226.494 174.13 229.772 178.128 230.429 182.206Z" fill="#C27979" stroke="#C27979" stroke-width="0.643961"/>
<path d="M158.847 188.928C158.831 191.322 157.87 193.155 156.336 194.391C154.795 195.632 152.654 196.289 150.266 196.274C147.878 196.258 145.746 195.573 144.221 194.31C142.704 193.054 141.767 191.21 141.783 188.815C141.814 184.029 144.918 178.878 150.406 175.103C155.844 178.95 158.879 184.142 158.847 188.928Z" fill="#C27979" stroke="#C27979" stroke-width="0.643961"/>
<path d="M128.04 187.159C128.373 189.09 127.716 190.743 126.39 192.026C125.055 193.318 123.036 194.238 120.671 194.645C118.306 195.052 116.097 194.861 114.407 194.09C112.728 193.324 111.555 191.986 111.223 190.055C110.553 186.162 112.822 181.396 117.689 177.323C123.637 179.534 127.37 183.266 128.04 187.159Z" fill="#C27979" stroke="#C27979" stroke-width="0.643961"/>
<path d="M112.247 187.325C112.267 189.719 111.333 191.565 109.818 192.824C108.296 194.089 106.165 194.778 103.777 194.798C101.389 194.819 99.2473 194.166 97.704 192.926C96.168 191.693 95.203 189.863 95.1829 187.469C95.1426 182.683 98.1684 177.485 103.599 173.628C109.094 177.393 112.207 182.539 112.247 187.325Z" fill="#C27979" stroke="#C27979" stroke-width="0.643961"/>
<path d="M237.079 176.701C237.097 178.148 236.546 179.264 235.651 180.026C234.752 180.792 233.488 181.214 232.068 181.231C230.648 181.249 229.374 180.859 228.456 180.116C227.542 179.376 226.964 178.274 226.946 176.827C226.91 173.936 228.692 170.786 231.909 168.436C235.184 170.705 237.043 173.81 237.079 176.701Z" fill="#C27979" stroke="#C27979" stroke-width="0.45071"/>
<path d="M87.4215 174.813C87.4421 176.464 86.814 177.737 85.7932 178.607C84.767 179.481 83.3258 179.961 81.7053 179.982C80.0849 180.002 78.6321 179.557 77.5845 178.709C76.5424 177.865 75.8829 176.608 75.8623 174.957C75.8213 171.659 77.8536 168.066 81.5237 165.385C85.2594 167.974 87.3805 171.515 87.4215 174.813Z" fill="#C27979" stroke="#C27979" stroke-width="0.514166"/>
<path d="M154.082 58.7766C154.082 56.7737 155.706 55.15 157.709 55.15V55.15C159.712 55.15 161.335 56.7737 161.335 58.7766V90.4257H154.082V58.7766Z" fill="#7BC2A4"/>
<path d="M160.74 54.4695C160.74 56.286 159.72 57.7586 157.717 57.7586C155.715 57.7586 154.695 56.286 154.695 54.4695C154.695 52.653 156.5 47.6375 157.717 46C159.522 47.6375 160.74 50.9038 160.74 54.4695Z" fill="#E4D446"/>
<path d="M175.028 62.8713C175.222 60.8779 176.995 59.4192 178.989 59.6133V59.6133C180.982 59.8075 182.441 61.5809 182.247 63.5744L179.435 92.4504L172.216 91.7474L175.028 62.8713Z" fill="#7BC2A4"/>
<path d="M182.066 59.2805C181.903 60.9533 180.757 62.2106 178.763 62.0165C176.77 61.8223 175.888 60.3675 176.05 58.6946C176.213 57.0218 178.459 52.5779 179.818 51.1879C181.467 52.8708 182.386 55.9968 182.066 59.2805Z" fill="#E4D446"/>
<path d="M131.595 63.8233C131.315 61.84 132.696 60.0054 134.679 59.7254V59.7254C136.663 59.4455 138.497 60.8263 138.777 62.8095L142.832 91.5374L135.65 92.5512L131.595 63.8233Z" fill="#7BC2A4"/>
<path d="M137.593 58.6784C137.828 60.3426 137.009 61.8342 135.026 62.1141C133.042 62.394 131.843 61.1874 131.608 59.5232C131.373 57.8589 132.511 53.0116 133.505 51.3411C135.504 52.5892 137.132 55.4115 137.593 58.6784Z" fill="#E4D446"/>
<path d="M114.904 97.1858C114.509 94.9976 115.788 92.9356 117.759 92.5802C119.73 92.2248 121.648 93.7106 122.042 95.8988C122.437 98.087 120.801 98.168 118.83 98.5234C116.859 98.8787 115.298 99.374 114.904 97.1858Z" fill="#BD3333"/>
<path d="M122.752 110.239C121.905 108.403 122.623 106.268 124.353 105.47C126.084 104.672 128.174 105.514 129.02 107.35C129.866 109.186 128.383 109.659 126.652 110.457C124.921 111.255 123.598 112.075 122.752 110.239Z" fill="#BD3333"/>
<path d="M142.147 102.451C141.87 100.245 143.256 98.254 145.244 98.0045C147.231 97.7549 149.066 99.3411 149.343 101.547C149.621 103.753 147.983 103.747 145.996 103.996C144.009 104.246 142.424 104.657 142.147 102.451Z" fill="#BD3333"/>
<path d="M187.285 96.6287C187.63 94.9304 189.251 93.8265 190.905 94.1629C192.558 94.4993 193.619 96.1488 193.273 97.847C192.928 99.5452 191.62 99.1117 189.966 98.7753C188.313 98.4389 186.939 98.3269 187.285 96.6287Z" fill="#BD3333"/>
<path d="M203.766 99.2796C203.898 97.8948 205.149 96.8817 206.56 97.0167C207.971 97.1516 209.007 98.3836 208.874 99.7684C208.742 101.153 207.611 100.913 206.2 100.778C204.789 100.643 203.633 100.664 203.766 99.2796Z" fill="#BD3333"/>
<path d="M164.16 88.411C164.298 86.6835 165.446 85.3658 166.723 85.4679C168.001 85.57 168.925 87.0532 168.787 88.7808C168.649 90.5083 167.626 90.262 166.348 90.1598C165.071 90.0577 164.022 90.1385 164.16 88.411Z" fill="#BD3333"/>
<path d="M166.858 102.295C166.651 100.575 167.841 99.0164 169.516 98.8148C171.192 98.6133 172.718 99.8447 172.925 101.565C173.132 103.286 171.754 103.286 170.078 103.488C168.403 103.69 167.065 104.016 166.858 102.295Z" fill="#BD3333"/>
</svg>
